<?xml version="1.0" encoding="UTF-8" standalone="no"?>
<!-- Created with Inkscape (http://www.inkscape.org/) -->

<svg
   width="160"
   height="60"
   viewBox="0 0 42.333332 15.875"
   version="1.1"
   id="svg5"
   inkscape:version="1.1 (c68e22c387, 2021-05-23)"
   sodipodi:docname="a-xs-light.svg"
   xmlns:inkscape="http://www.inkscape.org/namespaces/inkscape"
   xmlns:sodipodi="http://sodipodi.sourceforge.net/DTD/sodipodi-0.dtd"
   xmlns="http://www.w3.org/2000/svg"
   xmlns:svg="http://www.w3.org/2000/svg">
  <sodipodi:namedview
     id="namedview7"
     pagecolor="#ffffff"
     bordercolor="#666666"
     borderopacity="1.0"
     inkscape:pageshadow="2"
     inkscape:pageopacity="0.0"
     inkscape:pagecheckerboard="0"
     inkscape:document-units="mm"
     showgrid="false"
     units="px"
     inkscape:showpageshadow="false"
     inkscape:zoom="4.1524866"
     inkscape:cx="70.680541"
     inkscape:cy="47.321044"
     inkscape:window-width="1920"
     inkscape:window-height="1009"
     inkscape:window-x="-8"
     inkscape:window-y="-8"
     inkscape:window-maximized="1"
     inkscape:current-layer="g878" />
  <defs
     id="defs2" />
  <g
     inkscape:label="Layer 1"
     inkscape:groupmode="layer"
     id="layer1">
    <g
       style="fill:none"
       id="g878"
       transform="matrix(0.03270984,0,0,0.03270984,0.16744394,4.0026482)">
      <path
         style="fill:#ffffff;fill-opacity:0.6;stroke-width:0.910184;stroke-linecap:round;stroke-linejoin:round"
         d=""
         id="path1170"
         transform="matrix(8.0887994,0,0,8.0887994,-5.1190694,-122.36832)" />
      <g
         id="g2094"
         style="fill:#ffffff;fill-opacity:0.69999999"
         transform="translate(-1.6177598,1.1081666)">
        <path
           style="fill:#ffffff;fill-opacity:0.69999999;stroke-width:17.5143;stroke-linecap:round;stroke-linejoin:round"
           d="m 183.61948,353.48164 c -5.0974,-1.17911 -20.73712,-4.45131 -34.75494,-7.27152 C 87.783433,333.92144 41.126476,301.26971 15.838258,253.11496 4.551742,231.62274 2.9780395,223.52799 2.9697555,186.92232 2.9619046,152.22631 4.7608742,141.83203 13.672841,125.08075 27.021679,99.989731 58.756852,67.826431 78.752751,59.122841 c 16.988704,-7.39466 16.834313,-3.39278 2.685087,-69.59834 -8.226071,-38.49057 -8.230546,-40.58682 -0.132004,-61.79266 10.052069,-26.32099 29.045076,-39.659601 56.507256,-39.684541 37.07139,-0.0346 59.15237,31.019721 67.75032,95.280051 4.76529,35.61546 6.13688,39.08834 15.43749,39.08834 8.9707,0 10.5906,-3.2286 13.36894,-26.6454504 7.28534,-61.4034396 22.06329,-88.6464796 56.30181,-103.7917906 24.39051,-10.78909 39.42518,-7.87433 55.02765,10.668121 23.48183,27.9066 26.08826,69.39999 7.66155,121.9698 l -8.08073,23.05361 26.38383,17.0527 c 62.98131,40.706789 87.10387,121.349079 55.95996,187.075509 -20.75878,43.80952 -60.57666,74.14699 -121.20374,92.34578 -25.01371,7.50851 -104.56017,13.55717 -122.80073,9.33767 z M 161.60802,190.02309 c 7.01882,-8.71117 7.61135,-39.70039 0.99545,-52.0623 -5.951,-11.11956 -26.08199,-11.81054 -37.70249,-1.29407 -9.86359,8.92645 -11.4172,41.4019 -2.5345,52.97941 10.92739,14.24253 27.93804,14.40598 39.24154,0.37696 z m 157.55566,0 c 7.01883,-8.71117 7.61135,-39.70039 0.99542,-52.0623 -3.31119,-6.18699 -9.71978,-8.96333 -20.68991,-8.96333 -18.81434,0 -25.48696,9.39398 -25.48696,35.88158 0,33.2857 26.66495,48.1251 45.18141,25.14405 z"
           id="path977" />
        <g
           id="g1843"
           transform="matrix(1.3075053,0,0,1.3075053,117.47754,-550.79699)"
           style="fill:#ffffff;fill-opacity:0.69999999">
          <path
             style="fill:#ffffff;fill-opacity:0.69999999;stroke-width:7.3623;stroke-linecap:round;stroke-linejoin:round"
             d="m 258.99833,584.03764 c -0.56791,-0.91886 -1.11456,-22.89426 -1.21484,-48.83421 -0.13055,-33.77226 0.47425,-47.95467 2.13004,-49.9498 3.30759,-3.9854 46.19395,-3.86506 59.77383,0.16776 22.19498,6.5912 30.31715,31.777 16.84311,52.2283 -6.79083,10.30732 -17.55616,14.84698 -35.3358,14.90083 l -14.12257,0.0429 v 12.78968 c 0,18.33139 -1.52421,20.32533 -15.53711,20.32533 -6.32727,0 -11.96877,-0.75178 -12.53666,-1.67065 z m 49.27945,-54.33267 c 6.26416,-5.20087 7.21034,-14.08968 2.18048,-20.48412 -3.55182,-4.5154 -5.65049,-5.3261 -13.78783,-5.3261 h -9.59833 v 14.60956 14.60956 h 8.54994 c 5.28004,0 10.12018,-1.30372 12.65574,-3.4089 z"
             id="path1016" />
          <path
             style="fill:#ffffff;fill-opacity:0.69999999;stroke-width:7.3623;stroke-linecap:round;stroke-linejoin:round"
             d="m 364.95936,584.04455 c -10.89528,-5.79754 -15.82969,-16.21788 -15.08419,-31.8543 1.14323,-23.97864 16.12832,-37.90163 42.9785,-39.93231 18.88168,-1.42801 35.70128,3.13329 38.47725,10.43466 1.04729,2.75461 1.76313,17.24672 1.59073,32.20469 -0.35445,30.75081 -1.5825,33.95039 -12.14101,31.63135 -3.33369,-0.7322 -8.02655,-2.61898 -10.42857,-4.19285 -3.92839,-2.57399 -5.21666,-2.45042 -12.81822,1.22942 -10.45861,5.06293 -23.59724,5.25627 -32.57449,0.47935 z m 37.96521,-21.61483 c 3.8418,-7.42921 3.81044,-21.40804 -0.0607,-26.93448 -2.98302,-4.25886 -9.1552,-5.51019 -15.3858,-3.11928 -8.01669,3.07629 -11.71259,23.0596 -5.82064,31.47154 2.2561,3.22104 4.98592,4.32931 10.66365,4.32931 6.48049,0 8.07946,-0.86665 10.60322,-5.74709 z"
             id="path1131" />
          <path
             style="fill:#ffffff;fill-opacity:0.69999999;stroke-width:7.3623;stroke-linecap:round;stroke-linejoin:round"
             d="m 450.88646,583.91733 c -2.1735,-1.37607 -2.73461,-8.5696 -2.73461,-35.0581 0,-18.32972 0.60003,-33.92679 1.33337,-34.66014 2.82452,-2.82452 15.71378,-0.89638 18.70547,2.79821 2.95829,3.65333 3.20194,3.63862 12.72864,-0.76803 18.44688,-8.53272 36.99485,-4.19346 42.94484,10.04688 3.60588,8.63008 3.97374,53.58802 0.46713,57.09458 -2.77221,2.77221 -20.75218,3.07738 -24.93365,0.42321 -2.32699,-1.47706 -2.9219,-6.52781 -2.9219,-24.80642 0,-12.62346 -0.70915,-24.04745 -1.57593,-25.38666 -2.03919,-3.15072 -11.96513,-3.15072 -14.56865,0 -1.10663,1.33921 -2.30968,12.7682 -2.67344,25.39775 -0.5117,17.76589 -1.32268,23.38006 -3.58331,24.80642 -3.6938,2.33063 -19.56273,2.40748 -23.18799,0.11227 z"
             id="path1209" />
          <path
             style="fill:#ffffff;fill-opacity:0.69999999;stroke-width:7.3623;stroke-linecap:round;stroke-linejoin:round"
             d="m 563.0661,585.67544 c -18.44609,-5.53675 -29.52329,-24.94513 -24.62327,-43.14243 3.1107,-11.55228 17.40639,-25.73722 29.13621,-28.9105 15.47138,-4.1855 40.94283,0.021 43.70432,7.21698 0.587,1.52981 -0.30988,5.44474 -1.99318,8.69985 -2.62253,5.07143 -3.80529,5.72404 -8.26495,4.5604 -2.86245,-0.74692 -9.32625,-1.79432 -14.364,-2.32762 -7.92626,-0.83907 -9.82779,-0.30139 -14.12257,3.9934 -7.03113,7.03113 -7.03113,20.78057 0,27.8117 4.31138,4.31139 6.16566,4.82959 14.12257,3.94674 5.03775,-0.55894 11.78927,-1.58123 15.00337,-2.27172 5.0917,-1.09383 6.3044,-0.47206 9.42242,4.83132 1.96823,3.3477 3.10971,7.30865 2.53661,8.80212 -2.5436,6.62853 -36.08676,11.13329 -50.55753,6.78976 z"
             id="path1248" />
          <path
             style="fill:#ffffff;fill-opacity:0.69999999;stroke-width:7.3623;stroke-linecap:round;stroke-linejoin:round"
             d="m 639.61906,584.1032 c -8.35612,-4.37421 -15.55737,-17.58558 -15.54228,-28.51377 0.0453,-32.55933 27.78005,-50.0167 66.32874,-41.74949 16.69046,3.57946 17.42187,5.13001 17.42187,36.93346 0,15.16185 -0.90063,29.08207 -2.01648,31.16706 -2.5326,4.7322 -14.6439,5.13518 -20.97884,0.69798 -4.0443,-2.83275 -5.02784,-2.75753 -12.73609,0.97397 -10.31688,4.99432 -23.49333,5.19342 -32.47692,0.49075 z m 37.1773,-19.01221 c 1.40855,-1.69719 2.93835,-8.3027 3.39957,-14.6789 0.6649,-9.19169 0.12125,-12.38574 -2.62439,-15.41963 -8.86472,-9.79541 -24.28651,0.58223 -24.28651,16.34288 0,11.56753 4.22992,16.84147 13.50754,16.84147 4.41512,0 8.48458,-1.25528 10.00379,-3.08582 z"
             id="path1287" />
          <path
             style="fill:#ffffff;fill-opacity:0.69999999;stroke-width:7.3623;stroke-linecap:round;stroke-linejoin:round"
             d="m 725.48615,583.88023 c -2.31462,-1.46465 -2.74692,-9.85633 -2.51691,-48.8573 0.19219,-32.59108 0.97612,-47.93045 2.54614,-49.82222 1.37677,-1.6589 5.98554,-2.73331 11.72473,-2.73331 14.01258,0 16.16985,4.18655 14.38999,27.92636 -1.96899,26.26274 1.29687,38.05944 6.83505,24.68908 3.37841,-8.15622 16.05753,-19.04576 23.88562,-20.51432 9.09433,-1.7061 19.49154,-0.44804 20.45096,2.4745 0.43954,1.33903 -4.53323,7.98778 -11.05066,14.775 -15.70048,16.35042 -15.71584,19.62517 -0.16218,34.56361 6.93905,6.66458 11.68766,12.8711 11.68766,15.276 0,3.69095 -1.13574,4.05065 -12.78968,4.05065 -7.03433,0 -14.35797,-0.83932 -16.27477,-1.86516 -1.9168,-1.02584 -7.33776,-7.79074 -12.04657,-15.03312 l -8.56148,-13.16797 -0.97398,13.15826 c -0.64637,8.73287 -1.95666,13.77879 -3.89588,15.0033 -3.72151,2.34994 -19.57288,2.4022 -23.248,0.0768 z"
             id="path1326" />
          <path
             style="fill:#ffffff;fill-opacity:0.69999999;stroke-width:7.3623;stroke-linecap:round;stroke-linejoin:round"
             d="m 836.61641,584.84573 c -33.04407,-10.74435 -34.16939,-56.58687 -1.72186,-70.14432 10.14869,-4.24038 29.12776,-3.90476 38.09848,0.67371 9.11252,4.65087 12.81808,8.75859 17.79091,19.72172 4.95755,10.92934 4.97243,12.67389 0.14965,17.49644 -3.48385,3.48386 -6.49312,3.89588 -28.45357,3.89588 -21.59305,0 -24.41491,0.37201 -23.37525,3.08124 0.65034,1.69467 1.18234,3.42531 1.18234,3.84586 0,0.42053 2.58623,2.10199 5.74709,3.73656 6.66743,3.44784 20.80471,3.88962 28.67803,0.89619 4.69005,-1.78313 5.94357,-1.47811 8.89258,2.16374 4.71456,5.82227 4.31085,8.98669 -1.64461,12.88881 -6.85502,4.4916 -33.71663,5.52483 -45.34403,1.74417 z m 30.94216,-46.72287 c 0,-3.79415 -5.15798,-8.65851 -10.64008,-10.03443 -3.85529,-0.96762 -16.63114,3.55709 -16.63114,5.89012 0,0.42054 -0.53224,2.15119 -1.18234,3.84586 -1.01434,2.64327 0.92382,3.08123 13.63561,3.08123 11.54361,0 14.81795,-0.61491 14.81795,-2.78278 z"
             id="path1365" />
        </g>
      </g>
    </g>
  </g>
</svg>
