<?xml version="1.0" encoding="UTF-8" standalone="no"?>
<!-- Created with Inkscape (http://www.inkscape.org/) -->

<svg
   width="160"
   height="60"
   viewBox="0 0 42.333332 15.875"
   version="1.1"
   id="svg5"
   inkscape:version="1.1 (c68e22c387, 2021-05-23)"
   sodipodi:docname="a-xs-light.svg"
   xmlns:inkscape="http://www.inkscape.org/namespaces/inkscape"
   xmlns:sodipodi="http://sodipodi.sourceforge.net/DTD/sodipodi-0.dtd"
   xmlns="http://www.w3.org/2000/svg"
   xmlns:svg="http://www.w3.org/2000/svg">
  <sodipodi:namedview
     id="namedview7"
     pagecolor="#ffffff"
     bordercolor="#666666"
     borderopacity="1.0"
     inkscape:pageshadow="2"
     inkscape:pageopacity="0.0"
     inkscape:pagecheckerboard="0"
     inkscape:document-units="mm"
     showgrid="false"
     units="px"
     inkscape:showpageshadow="false"
     inkscape:zoom="0.51906082"
     inkscape:cx="-326.55133"
     inkscape:cy="393.98081"
     inkscape:window-width="1920"
     inkscape:window-height="1009"
     inkscape:window-x="-8"
     inkscape:window-y="-8"
     inkscape:window-maximized="1"
     inkscape:current-layer="g878" />
  <defs
     id="defs2" />
  <g
     inkscape:label="Layer 1"
     inkscape:groupmode="layer"
     id="layer1">
    <g
       style="fill:none"
       id="g878"
       transform="matrix(0.03270984,0,0,0.03270984,0.16744394,4.0026482)">
      <path
         style="fill:#ffffff;stroke:none;stroke-width:0.999673"
         d="m 43.615908,90.781073 c -8.4005,1.922199 -15.9522,8.092099 -21.9919,14.010097 -32.6834,32.0247 -20.1588998,84.3055 19.9925,103.4651 36.9132,17.6142 94.387812,16.7335 126.958112,-9.9757 38.0944,-31.2377 26.0903,-90.0477 -17.9941,-108.499097 6.8977,-16.028 13.5885,-40.8485 4.0437,-56.9665 -15.254,-25.7573001 -44.0245,-6.5864 -49.5506,14.9804 -2.5012,9.7622 -3.4769,19.942 -3.4769,29.9901 h -8.997012 c 0,-15.8523 -1.0646,-35.0326 -11.5255,-47.9441 -11.6218,-14.3441 -35.4956,-10.7319 -42.9272,5.9579 -7.8165,17.5543 1.5196,37.7547 5.4689,54.9818 m 876.710112,-23.564 c -6.2919,0.9014 -12.4309,2.2481 -17.994,5.4496 -13.5486,7.7974 -19.1647,28.014597 -9.4389,41.105997 6.2259,8.3811 16.9444,13.2215 26.4332,16.9333 6.066,2.3732 20.3613,6.3549 19.3466,15.056 -1.5974,13.6975 -26.7241,7.3825 -34.3416,4.1266 -3.2109,-1.3715 -7.3086,-4.5435 -10.8124,-2.4182 -10.8245,6.5678 -10.1097,18.062 0.8157,22.6685 13.9074,5.8651 32.0854,7.5205 46.9845,5.1753 5.861,-0.9227 12.114,-2.7141 16.9943,-6.1969 12.6978,-9.063 16.1047,-28.7365 6.07,-41.1774 -6.2619,-7.7632 -16.0816,-11.5731 -25.0637,-15.166 -6.4968,-2.5987 -20.3113,-5.7534 -19.6565,-14.994298 0.9217,-13.003899 21.284,-8.960399 28.6535,-5.686399 3.098,1.376299 7.1787,4.447999 10.4786,2.040199 8.4712,-6.179999 10.5615,-17.033499 0.5178,-21.852299 -11.2463,-5.3958 -26.7252,-6.8206 -38.9871,-5.064 m -650.7848,73.547497 c 10.5145,0 21.7258,1.1616 31.9894,-1.4775 24.8708,-6.3959 33.9498,-41.617998 15.5299,-60.037597 -12.136,-12.137 -32.7372,-10.4611 -48.519,-10.4611 -7.0846,0 -23.3533,-3.0041 -28.2486,3.2774 -2.9041,3.7268 -1.7415,10.3 -1.7415,14.7167 v 36.987697 34.9885 c 0,4.0636 -1.0616,10.2806 2.4332,13.2536 2.959,2.5172 7.9724,1.7414 11.5622,1.7414 4.2506,0 11.0633,1.2336 14.5612,-1.7414 5.7831,-4.9194 2.4332,-24.176 2.4332,-31.2477 m 465.846,3.9987 c 6.7277,7.7764 13.0416,23.0454 22.0856,27.9628 3.7988,2.0653 9.7208,1.0276 13.9025,1.0276 3.3069,0 16.2256,1.9334 16.3735,-3.1469 0.3699,-12.7728 -23.2303,-21.5129 -25.3346,-33.8408 -0.5818,-3.4099 3.2479,-6.6708 5.2333,-8.9971 4.5015,-5.2742 19.7675,-17.558 19.1766,-24.8437 -0.4218,-5.203798 -13.8974,-3.146998 -17.4482,-3.146998 -15.5868,0 -26.7801,14.056798 -32.9891,27.990698 -3.4388,-11.6345 -0.9996,-26.8651 -0.9996,-38.987097 0,-5.1107 0.9866,-12.2436 -2.1393,-16.6913 -3.9637,-5.6411 -26.4913,-5.7199 -28.5326,1.7542 -1.7794,6.5125 -0.3179,15.1994 -0.3179,21.934799 v 46.984498 c 0,7.6934 -2.2932,19.7614 0.6028,26.9321 2.5392,6.2869 23.6192,6.1489 27.8238,1.6244 5.1713,-5.5651 2.5632,-19.5265 2.5632,-26.5572 m -465.846,-25.9914 V 91.780773 c 5.6571,0 13.8244,-1.4814 18.9787,1.178599 8.5782,4.4279 9.067,18.817198 0.9707,23.955098 -5.3333,3.3845 -13.9054,1.8574 -19.9494,1.8574 m 118.9606,47.9841 c 2.7711,6.225 22.2997,12.6209 26.3883,4.5645 2.1063,-4.1516 0.6028,-11.986 0.6028,-16.5605 0,-13.5935 3.5299,-32.7662 -0.3179,-45.7719 -2.956,-9.993698 -27.4269,-11.206598 -35.6702,-11.209298 -9.7308,0 -19.2956,1.473 -27.9907,6.121498 -19.9154,10.6468 -28.0887,40.742 -14.7711,59.8417 11.5142,16.5136 37.9334,15.5949 51.7588,3.014 m 65.9782,-59.9801 c -0.6168,-8.085598 -20.9121,-11.415398 -24.3889,-4.5649 -1.9973,3.9363 -0.6028,11.232 -0.6028,15.5612 v 35.9881 c 0,4.6825 -1.5005,12.6309 1.0277,16.7665 3.1899,5.2183 22.2316,4.9554 26.6841,1.4855 7.6195,-5.937 3.232,-31.3616 3.2789,-40.2447 0.035,-6.7158 2.7192,-14.0176 10.9914,-12.752 7.1527,1.0943 6.9997,8.0736 7.0017,13.7517 0,9.4938 -3.8207,29.5822 1.1786,37.7595 3.216,5.2593 24.301,5.2912 28.2087,0.7937 4.4825,-5.1583 1.6024,-20.99 1.6024,-27.5569 0,-10.4515 2.0864,-23.3906 -2.835,-32.9891 -9.7798,-19.075397 -37.9854,-14.794498 -52.1468,-3.9986 m 100.9667,-8.568998 c -29.2564,4.200698 -49.9395,39.558698 -27.8059,64.546498 14.3593,16.2096 42.9708,16.4185 61.7946,8.7941 2.6561,-1.0757 6.5069,-2.3383 7.8644,-5.1204 1.8804,-3.8547 -5.0583,-15.8977 -9.074,-16.8374 -4.2476,-0.9947 -10.4095,4.2256 -14.7851,4.9964 -15.3409,2.7011 -27.219,-9.4999 -21.8838,-24.8178 3.4459,-9.8934 14.5332,-13.0162 23.8831,-9.8919 3.6888,1.2327 9.6119,6.1591 13.3856,3.2471 1.9514,-1.5045 3.182,-4.2745 4.4046,-6.3509 11.3512,-19.277098 -26.0134,-20.255598 -37.7835,-18.565698 m 107.9643,68.549098 c 3.0529,8.6332 26.4842,11.9081 26.972,0.9847 0.6518,-14.5942 0.019,-29.3613 0.019,-43.9705 0,-4.3675 1.5785,-12.6245 -1.0276,-16.3572 -3.9957,-5.7233 -15.6279,-7.485598 -21.9648,-8.553498 -22.6095,-3.8104 -50.7002,1.605798 -59.2814,25.910398 -4.4825,12.6968 -3.9507,30.0931 4.8284,40.9465 11.9631,14.7901 37.4656,12.8587 50.4544,1.0396 m 157.9477,-22.9924 h 27.9908 c 6.7417,0 18.9517,2.2793 24.6888,-1.9373 10.3446,-7.6045 -3.149,-30.2561 -9.6978,-35.7215 -21.7608,-18.161197 -65.1824,-8.752198 -70.7116,20.6645 -1.4475,7.7014 -1.7264,15.3849 0.5238,22.9924 6.9357,23.4552 32.2154,27.3729 53.1974,25.9014 5.997,-0.4199 20.9281,-2.4662 23.3453,-9.12 1.5165,-4.1756 -3.7597,-13.8294 -8.3932,-13.9354 -3.6518,-0.083 -7.4126,2.6601 -10.9534,3.4709 -12.194,2.795 -25.5116,0.5008 -29.9901,-12.315 m 332.88998,22.9924 c 2.879,9.5889 26.4712,11.4652 26.971,0 0.6198,-14.2693 0.02,-28.7005 0.02,-42.9848 0,-4.6887 1.5295,-12.7183 -1.5994,-16.6041 -4.4386,-5.5067 -14.8551,-7.155 -21.393,-8.303498 -21.9627,-3.8573 -50.5233,1.342898 -59.2704,24.907598 -4.7984,12.9278 -4.2486,30.8748 4.6785,41.9712 11.8861,14.7681 37.5176,12.7487 50.5933,1.0146 m 70.9765,4.9984 c 43.7055,24.6048 78.8739,-47.4553 36.9878,-68.6001 -15.365,-7.755398 -36.0281,-6.962898 -51.9829,-1.7062 -4.5584,1.5033 -13.2856,3.7056 -15.3949,8.5397 -1.7594,4.0546 -0.5998,10.4348 -0.5998,14.7821 v 33.9888 31.9894 c 0,3.8457 -0.7097,9.4039 2.5092,12.2539 2.889,2.5432 7.9474,1.7415 11.4862,1.7415 3.9387,0 10.1267,1.1176 13.5755,-1.1787 6.8678,-4.5694 3.4189,-24.5888 3.4189,-31.8104 m -191.9365,-28.9904 c 2.5691,7.8674 5.4382,23.7791 11.6461,29.3873 3.5988,3.2529 19.3636,3.0679 22.5026,-0.7148 3.2589,-3.9297 4.1186,-10.8884 5.5581,-15.6768 3.5988,-12.0001 7.3376,-23.9631 10.8564,-35.9881 1.3396,-4.6068 5.2383,-12.0337 4.2986,-16.8464 -0.9997,-5.154698 -22.0727,-4.557598 -25.3116,-1.5442 -6.5179,6.0813 -7.7775,26.7778 -9.5569,35.385 h -0.9996 c -2.5292,-9.277 -11.3263,-42.860998 -27.341,-28.3873 -6.1679,5.5686 -8.6771,20.6828 -11.6461,28.3873 -2.7691,-7.3516 -3.9687,-15.37 -5.8681,-22.9924 -0.9097,-3.6445 -1.2096,-10.6794 -4.5585,-12.968 -3.18888,-2.177298 -23.40728,-2.828898 -24.77378,1.2897 -1.7594,5.3023 3.9917,16.4235 5.5012,21.6749 3.074,10.6965 6.4858,21.295 9.5648,31.9895 1.3506,4.6934 2.2313,11.7611 5.2283,15.6768 2.96998,3.8767 17.72508,3.6398 21.69378,1.2896 7.3676,-4.3656 9.6768,-22.4136 13.2057,-29.9621 m -183.93918,-14.9951 h -27.9908 c 3.5928,-14.9416 26.2503,-16.8799 27.9908,0 m -474.843,-8.6028 c 18.5518,-4.2624 16.2436,32.408 3.9977,35.5209 -22.0887,5.6142 -22.0018,-31.3846 -3.9977,-35.5209 m 274.9091,0 c 18.5518,-4.2624 16.2436,32.408 3.9977,35.5209 -22.0607,5.6072 -22.1127,-31.3586 -3.9977,-35.5209 m 490.83768,-0.054 c 2.919,-0.563 8.8371,-1.2346 10.9664,1.4015 1.9393,2.3969 1.0296,7.3903 1.0296,10.2543 0,8.1853 2.4892,21.33 -7.9973,23.8491 -22.3726,5.3763 -22.3826,-31.9534 -3.9987,-35.5049 m 83.9722,0.6595 c 3.9587,-0.7359 7.9474,-1.2972 11.9961,-0.8948 14.5551,1.448 17.6041,24.7159 7.7874,33.465 -6.6578,5.926 -16.9944,3.045 -19.1037,-5.5802 -0.7897,-3.2699 -0.6798,-6.6558 -0.6798,-9.9956 v -16.9944 m -1161.615092,4.4725 c 14.2336,-3.1939 16.3974,25.4596 3.9825,28.8235 -14.4787,3.9227 -17.3506,-25.8235 -3.9825,-28.8235 m 65.978412,0 c 14.2333,-3.1939 16.3976,25.4596 3.9827,28.8235 -14.4792,3.9227 -17.3513,-25.8235 -3.9827,-28.8235 z"
         id="path1497" />
    </g>
  </g>
</svg>
