<?xml version="1.0" encoding="UTF-8" standalone="no"?>
<!-- Created with Inkscape (http://www.inkscape.org/) -->

<svg
   width="247.84"
   height="60"
   viewBox="0 0 65.57433 15.875"
   version="1.1"
   id="svg5"
   inkscape:version="1.1 (c68e22c387, 2021-05-23)"
   sodipodi:docname="b-xs-light.svg"
   xmlns:inkscape="http://www.inkscape.org/namespaces/inkscape"
   xmlns:sodipodi="http://sodipodi.sourceforge.net/DTD/sodipodi-0.dtd"
   xmlns="http://www.w3.org/2000/svg"
   xmlns:svg="http://www.w3.org/2000/svg">
  <sodipodi:namedview
     id="namedview7"
     pagecolor="#ffffff"
     bordercolor="#666666"
     borderopacity="1.0"
     inkscape:pageshadow="2"
     inkscape:pageopacity="0.0"
     inkscape:pagecheckerboard="0"
     inkscape:document-units="mm"
     showgrid="false"
     units="px"
     inkscape:showpageshadow="false"
     inkscape:zoom="0.18351571"
     inkscape:cx="-2389.4412"
     inkscape:cy="798.29677"
     inkscape:window-width="1920"
     inkscape:window-height="1009"
     inkscape:window-x="-8"
     inkscape:window-y="-8"
     inkscape:window-maximized="1"
     inkscape:current-layer="g878" />
  <defs
     id="defs2" />
  <g
     inkscape:label="Layer 1"
     inkscape:groupmode="layer"
     id="layer1">
    <g
       style="fill:none"
       id="g878"
       transform="matrix(0.03270984,0,0,0.03270984,0.16744394,4.0026482)">
      <path
         style="fill:#ffffff;fill-opacity:0.7;stroke-width:4.04988"
         d="M 173.12851,349.54232 C 93.486835,327.45668 30.89543,264.14238 8.6859377,183.20071 0.1568356,152.11638 1.3751454,82.100292 10.986412,50.994022 26.318755,1.3716303 65.845673,-50.637439 109.65114,-78.827696 c 66.97312,-43.099694 161.89284,-47.297804 235.597,-10.419895 41.74991,20.889423 91.12226,71.269412 91.12226,92.9817773 0,13.3475757 -11.79006,23.5463657 -27.21996,23.5463657 -10.05409,0 -15.20787,-3.67189 -27.17049,-19.3583667 C 362.75742,-17.284069 344.96216,-31.18416 312.41913,-46.412876 277.49471,-62.756121 226.74083,-66.568513 187.0661,-55.829026 56.255878,-20.4204 11.45273,150.23477 106.7398,250.13337 c 73.90613,77.48279 196.12968,73.68441 269.60247,-8.37848 27.25762,-30.44452 37.57451,-34.43398 51.92832,-20.08033 11.16597,11.16597 10.14215,24.31454 -3.34312,42.93025 -27.63151,38.14414 -78.15605,72.47045 -124.39628,84.5146 -28.69532,7.47417 -101.10882,7.71456 -127.40268,0.42291 z m 657.55416,-63.7565 C 814.0385,277.72646 813.00878,268.08578 813.00878,120.30107 V -21.190129 l 11.13718,-12.223553 c 14.3633,-15.764431 31.60433,-18.987428 47.58597,-8.895684 7.75113,4.8944 36.34193,44.8560503 78.97266,110.380738 l 66.82281,102.708798 2.0249,-100.457028 2.0249,-100.457034 11.363,-9.766551 c 6.2496,-5.37161 14.0856,-9.76655 17.4131,-9.76655 9.5553,0 28.7174,11.203316 31.4813,18.405814 1.3837,3.605761 2.5156,71.913111 2.5156,151.794399 v 145.2384 l -9.6948,11.27084 c -12.2769,14.2729 -36.7992,15.58098 -53.917,2.87602 -6.2207,-4.61713 -40.4698,-53.43105 -76.10855,-108.47547 l -64.7981,-100.080338 -2.02492,98.442698 c -1.11375,54.14352 -3.49218,101.38516 -5.28525,104.98158 -3.42465,6.86875 -20.01716,15.92843 -28.31676,15.46149 -2.6795,-0.15093 -8.76452,-2.15888 -13.52215,-4.46262 z m 423.84223,-0.46523 c -19.2497,-9.73979 -20.2057,-16.70501 -20.2695,-147.68093 l -0.059,-122.508598 h -41.6225 c -50.4576,0 -59.6244,-4.35853 -59.6244,-28.349275 0,-28.066093 1.3767,-28.34912 137.8909,-28.34912 h 119.8893 l 8.8056,9.373361 c 11.2727,11.999029 11.2481,28.5344343 -0.058,39.0674463 -7.7864,7.2543107 -14.1823,8.2575877 -52.6481,8.2575877 h -43.785 V 142.34205 269.5532 l -12.4604,10.48462 c -13.8793,11.67866 -21.2758,12.76238 -36.0583,5.28277 z m 492.5262,-3.19173 c -7.8726,-6.19268 -10.671,-12.08647 -10.671,-22.4754 0,-18.1676 5.7536,-28.97772 49.4929,-92.99267 l 36.2058,-52.98869 -30.9834,-47.721178 c -39.6901,-61.1316147 -48.4924,-79.239309 -45.0963,-92.770638 2.5677,-10.229757 20.3268,-22.847277 32.1575,-22.847277 11.9905,0 27.6728,18.097891 56.242,64.905416 16.254,26.630259 30.4639,48.415449 31.5776,48.411559 1.1138,0 17.0876,-23.46951 35.4976,-52.146153 35.6473,-55.526453 46.6733,-65.143476 66.1835,-57.72579 30.2555,11.503147 26.2791,30.418535 -21.6845,103.153813 l -37.8649,57.421128 41.7073,64.31291 c 33.8827,52.24791 41.7071,67.1354 41.7071,79.3574 0,16.76413 -7.8448,26.23847 -25.3413,30.60525 -17.7098,4.41983 -28.0385,-5.72528 -64.0971,-62.9583 -18.3317,-29.09644 -34.7033,-53.75111 -36.3814,-54.78815 -1.6781,-1.0372 -19.0484,22.85474 -38.6006,53.0931 -43.0481,66.57557 -56.7187,76.50674 -80.0508,58.15367 z M 517.01691,277.23166 C 502.03325,265.72743 501.1683,257.19584 501.1683,120.88455 c 0,-89.376328 1.49123,-136.994343 4.49654,-143.590331 7.8921,-17.32116 18.12404,-18.861552 125.29018,-18.861552 95.65645,0 101.48909,0.432866 109.15604,8.099815 4.45484,4.454844 8.09966,12.655796 8.09966,18.22439 0,5.5685943 -3.64482,13.7695463 -8.09966,18.2245453 -7.55974,7.5597447 -13.49959,8.0996597 -89.09734,8.0996597 h -80.99753 v 38.473845 38.47385 h 74.92278 c 69.52286,0 75.50642,0.5838 83.02245,8.09966 10.6147,10.614698 10.29106,25.992168 -0.76366,36.291168 -8.25075,7.68671 -13.9891,8.25758 -83.02245,8.25758 h -74.15912 v 42.52353 42.52383 h 79.23883 c 94.52715,0 102.80621,2.50571 102.9436,31.15684 0.1167,24.45846 -5.21477,25.55696 -123.34787,25.41257 -76.46987,-0.0934 -107.17221,-1.48329 -111.83384,-5.06229 z m 947.45799,-2.54678 -9.5611,-7.7379 -1.1839,-137.04522 c -0.6511,-75.374788 -0.1493,-141.191994 1.1155,-146.26035 1.2647,-5.068355 5.898,-12.813725 10.2962,-17.211932 7.5523,-7.552276 13.8487,-7.996811 113.2934,-7.996811 99.8969,0 105.7121,0.415439 113.3967,8.099815 4.4547,4.454844 8.0996,12.655796 8.0996,18.22439 0,5.5685943 -3.6449,13.7695463 -8.0996,18.2245453 -7.5599,7.5597447 -13.4998,8.0996597 -89.0974,8.0996597 h -80.9975 v 38.473845 38.47385 h 74.9228 c 69.5228,0 75.5064,0.5838 83.0224,8.09966 10.8347,10.834708 10.2111,22.556008 -1.841,34.608088 -9.8196,9.81977 -10.8291,9.94066 -83.0224,9.94066 h -73.0818 v 42.52353 42.52383 h 80.4514 c 75.2581,0 81.14,0.54179 91.1221,8.39358 13.0557,10.26959 14.2248,28.55124 2.5712,40.20485 -7.6906,7.6906 -13.4996,8.09981 -114.9728,8.09981 -99.1713,0 -107.562,-0.55765 -116.4338,-7.7379 z M 216.27986,238.56768 c -5.58882,-6.17557 -6.70242,-17.17459 -6.70242,-66.1953 0,-51.81053 0.87912,-59.58469 7.40618,-65.49154 9.84217,-8.907048 19.18783,-8.457528 29.0426,1.39724 7.32838,7.32837 8.09982,13.49959 8.09982,64.79805 0,51.29847 -0.77144,57.46968 -8.09982,64.7979 -10.08878,10.08895 -21.01327,10.34366 -29.74636,0.69365 z M 106.93321,210.21856 c -5.56564,-6.15006 -6.70242,-17.03393 -6.70242,-64.17039 0,-49.848778 0.90214,-57.580618 7.40618,-63.466618 9.78102,-8.85166 26.14433,-8.5179 34.48983,0.70375 9.5495,10.55215 9.87096,111.813918 0.39802,125.338558 -7.78396,11.11307 -26.22961,11.93959 -35.59161,1.5947 z m 162.03053,-5.78254 c -6.14958,-4.49685 -6.82891,-12.37806 -5.83637,-67.72122 1.10893,-61.827898 1.25005,-62.695028 10.99155,-67.546488 10.1739,-5.06695 23.03026,-1.44377 29.55607,8.32948 1.6364,2.45093 3.0033,30.143438 3.03738,61.539108 0.0544,50.20588 -0.83026,57.89057 -7.34425,63.7856 -8.8224,7.98436 -20.82096,8.62106 -30.40438,1.61352 z M 163.54992,168.73239 c -10.61532,-8.35017 -10.67087,-8.68735 -10.67087,-64.79806 0,-51.004548 0.77548,-57.179808 8.09981,-64.504138 10.74711,-10.74695 26.32312,-10.33649 34.19437,0.90121 4.96146,7.08347 6.3044,20.82392 6.3044,64.503978 0,55.13731 -0.07,55.55851 -10.67087,63.89701 -5.86889,4.61635 -12.00167,8.39357 -13.62842,8.39357 -1.62659,0 -7.75937,-3.77722 -13.62842,-8.39357 z m 157.9152,-27.48495 c -5.85878,-6.47385 -6.65652,-15.96281 -5.69012,-67.686058 l 1.12402,-60.156492 10.67056,-5.9832547 c 9.56941,-5.366009 11.7633,-5.267362 21.26176,0.956288 l 10.59136,6.9396977 v 60.027201 c 0,53.009848 -0.86573,60.810608 -7.40617,66.729608 -9.7583,8.83111 -22.11365,8.49674 -30.55141,-0.82699 z"
         id="path2904" />
      <path
         style="fill:#000000;stroke-width:8.0888"
         id="path2864"
         d="" />
    </g>
  </g>
</svg>
