<?xml version="1.0" encoding="UTF-8" standalone="no"?>
<!-- Created with Inkscape (http://www.inkscape.org/) -->

<svg
   width="50"
   height="50"
   viewBox="0 0 13.229166 13.229167"
   version="1.1"
   id="svg5"
   inkscape:version="1.1 (c68e22c387, 2021-05-23)"
   sodipodi:docname="b-xs-light.svg"
   xmlns:inkscape="http://www.inkscape.org/namespaces/inkscape"
   xmlns:sodipodi="http://sodipodi.sourceforge.net/DTD/sodipodi-0.dtd"
   xmlns="http://www.w3.org/2000/svg"
   xmlns:svg="http://www.w3.org/2000/svg">
  <sodipodi:namedview
     id="namedview7"
     pagecolor="#ffffff"
     bordercolor="#666666"
     borderopacity="1.0"
     inkscape:pageshadow="2"
     inkscape:pageopacity="0.0"
     inkscape:pagecheckerboard="0"
     inkscape:document-units="mm"
     showgrid="false"
     units="px"
     inkscape:showpageshadow="false"
     inkscape:zoom="2.9362514"
     inkscape:cx="57.386094"
     inkscape:cy="96.551678"
     inkscape:window-width="1920"
     inkscape:window-height="1009"
     inkscape:window-x="-8"
     inkscape:window-y="-8"
     inkscape:window-maximized="1"
     inkscape:current-layer="g878" />
  <defs
     id="defs2" />
  <g
     inkscape:label="Layer 1"
     inkscape:groupmode="layer"
     id="layer1">
    <g
       style="fill:none"
       id="g878"
       transform="matrix(0.03270984,0,0,0.03270984,0.16744394,4.0026482)">
      <g
         id="g1106"
         transform="translate(14.794414)"
         style="fill:#ffffff;fill-opacity:0.69999999">
        <path
           style="fill:#ffffff;fill-opacity:0.69999999;stroke-width:3.35163"
           d="m 266.55215,97.191086 c -4.84864,-5.35768 -5.50885,-13.2106 -4.70907,-56.016064 l 0.93023,-49.7846761 8.83081,-4.9516579 c 7.91952,-4.440837 9.73515,-4.359195 17.59594,0.791408 l 8.76527,5.7432044 V 42.650985 c 0,43.870211 -0.71648,50.326011 -6.12925,55.224501 -8.07583,7.308504 -18.30095,7.031774 -25.28393,-0.6844 z"
           id="path999" />
        <path
           style="fill:#ffffff;fill-opacity:0.69999999;stroke-width:3.35163"
           d="m 135.86371,119.93723 c -8.78509,-6.91048 -8.83107,-7.18953 -8.83107,-53.625974 0,-42.210659 0.64178,-47.321217 6.7033,-53.382731 8.89416,-8.8940206 21.78464,-8.5543346 28.29879,0.745824 4.10603,5.862184 5.21743,17.2336 5.21743,53.382607 0,45.630864 -0.0579,45.979444 -8.83106,52.880274 -4.85701,3.82043 -9.93242,6.9464 -11.2787,6.9464 -1.34615,0 -6.42154,-3.12597 -11.27869,-6.9464 z"
           id="path997" />
        <path
           style="fill:#ffffff;fill-opacity:0.69999999;stroke-width:3.35163"
           d="m 223.10273,149.48506 c -5.08931,-3.72153 -5.65151,-10.24391 -4.83009,-56.045134 0.91773,-51.167915 1.03452,-51.885544 9.09645,-55.900544 8.41978,-4.193339 19.05952,-1.194839 24.46019,6.893365 1.35427,2.028354 2.4855,24.946299 2.51371,50.928909 0.045,41.549684 -0.68712,47.909444 -6.07801,52.788074 -7.3013,6.60775 -17.23114,7.13468 -25.16225,1.33533 z"
           id="path995" />
        <path
           style="fill:#ffffff;fill-opacity:0.69999999;stroke-width:3.35163"
           d="m 89.008496,154.27062 c -4.606043,-5.08971 -5.546827,-14.09706 -5.546827,-53.10652 0,-41.254164 0.746598,-47.652934 6.129247,-52.524104 8.09464,-7.325511 21.636694,-7.049295 28.543314,0.58242 7.90303,8.73281 8.16907,92.535644 0.32939,103.728444 -6.44189,9.19703 -21.707264,9.88105 -29.455124,1.31976 z"
           id="path993" />
        <path
           style="fill:#ffffff;fill-opacity:0.69999999;stroke-width:3.35163"
           d="m 179.50229,177.73196 c -4.62524,-5.11082 -5.54683,-14.21346 -5.54683,-54.78232 0,-42.877674 0.72754,-49.311454 6.12924,-54.199894 8.14524,-7.37134 15.87959,-6.99932 24.03526,1.15634 6.06487,6.06487 6.7033,11.17208 6.7033,53.625974 0,42.45389 -0.63843,47.56111 -6.7033,53.62584 -8.34934,8.34947 -17.3903,8.56026 -24.61767,0.57406 z"
           id="path991" />
        <path
           style="fill:#ffffff;fill-opacity:0.69999999;stroke-width:3.35163"
           d="M 143.79081,269.57303 C 77.880465,251.29527 26.08068,198.89723 7.7004099,131.91102 0.64184185,106.18605 1.6500979,48.241706 9.6042499,22.49859 22.293086,-18.568219 55.00502,-61.61021 91.257816,-84.940076 146.68385,-120.6088 225.2381,-124.08309 286.23465,-93.563433 c 34.55165,17.287791 75.41153,58.981582 75.41153,76.950435 0,11.0462734 -9.75729,19.4866464 -22.52686,19.4866464 -8.32062,0 -12.58583,-3.03880603 -22.48593,-16.0207114 C 300.72509,-34.00741 285.99798,-45.510935 259.06581,-58.114017 230.16285,-71.639462 188.15964,-74.794538 155.32538,-65.906691 47.068637,-36.603002 9.9901689,104.62886 88.848436,187.30355 c 61.163704,64.12369 162.314224,60.98022 223.119284,-6.9339 22.55803,-25.19546 31.09615,-28.49709 42.97517,-16.61821 9.2408,9.24081 8.39351,20.12237 -2.76672,35.52849 -22.86746,31.56755 -64.68087,59.97553 -102.94865,69.94312 -23.74785,6.18551 -83.67627,6.38445 -105.43671,0.34998 z"
           id="path2904" />
        <path
           style="fill:#ffffff;stroke-width:8.0888;fill-opacity:0.69999999"
           id="path2864"
           d="" />
      </g>
    </g>
  </g>
</svg>
