<?xml version="1.0" encoding="UTF-8" standalone="no"?>
<!-- Created with Inkscape (http://www.inkscape.org/) -->

<svg
   width="160"
   height="60"
   viewBox="0 0 42.333332 15.875"
   version="1.1"
   id="svg5"
   inkscape:version="1.1 (c68e22c387, 2021-05-23)"
   sodipodi:docname="c-xs-light.svg"
   xmlns:inkscape="http://www.inkscape.org/namespaces/inkscape"
   xmlns:sodipodi="http://sodipodi.sourceforge.net/DTD/sodipodi-0.dtd"
   xmlns:xlink="http://www.w3.org/1999/xlink"
   xmlns="http://www.w3.org/2000/svg"
   xmlns:svg="http://www.w3.org/2000/svg">
  <sodipodi:namedview
     id="namedview7"
     pagecolor="#ffffff"
     bordercolor="#666666"
     borderopacity="1.0"
     inkscape:pageshadow="2"
     inkscape:pageopacity="0.0"
     inkscape:pagecheckerboard="0"
     inkscape:document-units="mm"
     showgrid="false"
     units="px"
     inkscape:showpageshadow="false"
     inkscape:zoom="4.1524865"
     inkscape:cx="79.109227"
     inkscape:cy="53.100714"
     inkscape:window-width="1920"
     inkscape:window-height="1009"
     inkscape:window-x="-8"
     inkscape:window-y="-8"
     inkscape:window-maximized="1"
     inkscape:current-layer="g878" />
  <defs
     id="defs2">
    <path
       id="SVGID_1_"
       d="M720.6 306.4h508.7v266H720.6z" />
    <path
       id="SVGID_3_"
       d="M720.6 0H975v572.4H720.6z" />
    <path
       id="SVGID_5_"
       d="M975 0h254.4v572.4H975z" />
    <path
       id="SVGID_7_"
       d="M720.6 470.3H975v358.4H720.6z" />
    <path
       id="SVGID_9_"
       d="M975 470.3h254.5v358.4H975z" />
  </defs>
  <g
     inkscape:label="Layer 1"
     inkscape:groupmode="layer"
     id="layer1">
    <g
       style="fill:none"
       id="g878"
       transform="matrix(0.03270984,0,0,0.03270984,0.16744394,4.0026482)">
      <path
         style="fill:#000000;stroke-width:8.0888"
         id="path2864"
         d="" />
      <g
         id="g3647"
         transform="translate(7.5629926)"
         style="fill:#ffffff;fill-opacity:0.69999999">
        <path
           class="st0"
           d="m 389.2281,156.56694 c 0,2.12491 -1.77899,3.85443 -3.90357,3.85443 h -75.21215 c 1.87778,18.58065 15.86287,35.53049 35.53053,35.53049 13.44119,0 23.42357,-5.13934 30.93468,-15.8627 1.08709,-1.48254 2.71807,-2.42142 4.79344,-1.53193 1.13665,0.49415 1.92735,1.53193 2.12493,2.71791 0.19759,1.23541 -0.14836,1.92725 -0.49431,2.61908 -7.56071,13.19419 -22.63252,19.66777 -37.40796,19.66777 -25.30135,0 -43.33838,-22.63273 -43.33838,-46.84682 0,-24.21409 18.03703,-46.84678 43.33838,-46.84678 25.30099,-0.0494 43.58519,22.5339 43.63441,46.69855 m -8.05466,-3.65683 c -1.63098,-18.58058 -15.86288,-35.53042 -35.53053,-35.53042 -19.66766,0 -33.65275,16.94984 -35.53053,35.53042 z m 99.3269,-41.21331 c 2.17453,0 3.75593,1.87782 3.75593,3.75563 0,2.17434 -1.63098,3.75564 -3.75593,3.75564 h -20.16197 v 79.11575 c 0,1.87782 -1.63061,3.75567 -3.75557,3.75567 -2.17415,0 -3.75555,-1.87785 -3.75555,-3.75567 v -79.11575 h -19.37128 c -2.17415,0 -3.75556,-1.63073 -3.75556,-3.75564 0,-1.87781 1.63062,-3.75563 3.75556,-3.75563 h 19.37128 V 82.738753 c 0,-1.82838 1.23545,-3.50854 3.01444,-3.80506 2.52011,-0.39535 4.49668,1.33424 4.49668,3.7062 V 111.6968 Z m 122.99765,38.2483 v 47.93401 c 0,2.17427 -1.87778,3.75563 -3.75557,3.75563 -2.17452,0 -3.75591,-1.63076 -3.75591,-3.75563 V 149.9451 c 0,-16.15914 -9.14174,-32.31833 -27.17877,-32.31833 -23.12683,0 -33.10921,20.2113 -31.77496,40.91679 0,0.5436 0.24715,2.96499 0.24715,3.21209 v 35.97516 c 0,1.82845 -1.23545,3.50855 -3.01443,3.80507 -2.52011,0.39534 -4.4967,-1.33424 -4.4967,-3.70621 V 40.388879 c 0,-1.877851 1.63063,-3.755671 3.75557,-3.755671 2.17416,0 3.75556,1.87782 3.75556,3.755671 v 89.097831 c 6.47362,-11.56348 18.03703,-19.37127 31.47823,-19.37127 22.08933,0 34.73983,19.37127 34.73983,39.82966 m 134.85743,6.62184 c 0,2.12491 -1.77898,3.85443 -3.90393,3.85443 h -75.26136 c 1.87813,18.58065 15.86286,35.53049 35.53053,35.53049 13.44119,0 23.42356,-5.13934 30.93468,-15.8627 1.08708,-1.48254 2.71806,-2.42142 4.79343,-1.53193 1.13665,0.49415 1.92734,1.53193 2.12493,2.71791 0.19759,1.23541 -0.14836,1.92725 -0.49432,2.61908 -7.56069,13.19419 -22.63251,19.66777 -37.40794,19.66777 -25.30136,0 -43.33837,-22.63273 -43.33837,-46.84682 0,-24.21409 18.03701,-46.84678 43.33837,-46.84678 25.35057,-0.0494 43.63476,22.5339 43.68398,46.69855 m -8.10424,-3.65683 c -1.63062,-18.58058 -15.86287,-35.53042 -35.53052,-35.53042 -19.66767,0 -33.6524,16.94984 -35.53053,35.53042 z m 100.41434,-37.70476 c 0,2.42142 -1.33423,3.75567 -3.50876,4.05216 -22.08897,3.21204 -32.02177,21.24908 -32.02177,42.25104 v 35.97517 c 0,1.82846 -1.23544,3.50862 -3.01443,3.80507 -2.52011,0.39539 -4.49705,-1.3342 -4.49705,-3.7062 v -81.98193 c 0,-1.82839 1.23546,-3.50855 3.01444,-3.80506 2.52048,-0.39532 4.49704,1.33428 4.49704,3.70627 v 16.70275 c 6.17689,-10.47626 18.58058,-20.45842 31.47823,-20.45842 1.87779,-0.0494 4.0523,1.33427 4.0523,3.45915 m 123.54083,41.36159 c 0,2.12491 -1.77899,3.85443 -3.90392,3.85443 h -75.21179 c 1.87777,18.58065 15.86287,35.53049 35.53052,35.53049 13.4412,0 23.42357,-5.13934 30.9347,-15.8627 1.08707,-1.48254 2.71805,-2.42142 4.79341,-1.53193 1.13666,0.49415 1.92736,1.53193 2.12495,2.71791 0.19758,1.23541 -0.14838,1.92725 -0.49433,2.61908 -7.56069,13.19419 -22.6325,19.66777 -37.40796,19.66777 -25.30133,0 -43.33838,-22.63273 -43.33838,-46.84682 0,-24.21409 18.03705,-46.84678 43.33838,-46.84678 25.30102,-0.0494 43.5852,22.5339 43.63442,46.69855 m -8.05466,-3.65683 c -1.63098,-18.58058 -15.86288,-35.53042 -35.53053,-35.53042 -19.66765,0 -33.65275,16.94984 -35.53052,35.53042 z m 129.47151,-36.76584 v 82.17955 c 0,2.17434 -1.8778,3.75567 -3.7555,3.75567 -2.1743,0 -3.7557,-1.63077 -3.7557,-3.75567 v -15.61561 c -6.1772,12.40352 -17.2463,21.24909 -31.2314,21.24909 -22.3362,0 -34.7398,-19.37127 -34.7398,-39.82967 v -48.18102 c 0,-1.87781 1.6306,-3.7557 3.7555,-3.7557 2.1743,0 3.7557,1.87789 3.7557,3.7557 v 48.18102 c 0,16.15919 9.1424,32.31837 27.1794,32.31837 25.3013,0 31.2311,-23.67048 31.2311,-49.81178 v -30.68761 c 0,-2.17434 2.1745,-4.39807 4.843,-3.6074 1.6306,0.54361 2.7177,2.1249 2.7177,3.80506 m 190.2535,33.50438 v 48.18102 c 0,2.17431 -1.8777,3.75564 -3.7559,3.75564 -2.1742,0 -3.7555,-1.63072 -3.7555,-3.75564 v -48.18102 c 0,-16.15921 -9.1422,-32.02188 -27.1791,-32.02188 -22.6326,0 -31.2311,24.21403 -31.2311,43.04169 v 37.16121 c 0,2.17431 -1.8779,3.75564 -3.7556,3.75564 -2.1746,0 -3.7556,-1.63072 -3.7556,-3.75564 v -48.18102 c 0,-16.15921 -9.142,-32.02188 -27.1792,-32.02188 -22.8799,0 -32.3184,18.037 -31.4781,42.00397 0,0.54357 0.2467,1.63076 0,1.87781 v 36.22226 c 0,1.82845 -1.2356,3.50855 -3.064,3.80507 -2.5201,0.39534 -4.4967,-1.33424 -4.4967,-3.70621 v -82.22901 c 0,-1.82839 1.2351,-3.50855 3.0144,-3.80506 2.5202,-0.39532 4.4967,1.33428 4.4967,3.70627 v 13.73775 c 6.4736,-11.56342 18.037,-19.12418 31.4783,-19.12418 15.3193,0 27.1791,9.68567 32.0217,23.967 6.1773,-13.98488 18.2842,-23.967 33.8999,-23.967 22.089,0 34.7398,19.07475 34.7398,39.53321"
           id="path3335"
           style="stroke-width:0.494164;fill:#ffffff;fill-opacity:0.69999999" />
        <g
           id="g3497"
           style="fill:#ffffff;fill-opacity:0.69999999"
           transform="matrix(0.05460377,0,0,0.05460377,415.56981,-64.056517)">
          <g
             class="st1"
             id="g3345"
             transform="matrix(10.36793,0,0,10.36793,-15027.386,-919.77167)"
             style="fill:#ffffff;fill-opacity:0.69999999">
            <defs
               id="defs3338">
              <path
                 id="path3399"
                 d="m 720.6,306.4 h 508.7 v 266 H 720.6 Z" />
            </defs>
            <clipPath
               id="SVGID_2_">
              <use
                 xlink:href="#SVGID_1_"
                 overflow="visible"
                 id="use3340"
                 x="0"
                 y="0"
                 width="100%"
                 height="100%" />
            </clipPath>
            <path
               class="st2"
               d="M 975,306.4 720.6,422.1 975,572.4 1229.3,422.1 Z"
               clip-path="url(#SVGID_2_)"
               id="path3343"
               style="fill:#ffffff;fill-opacity:0.69999999" />
          </g>
          <g
             class="st3"
             id="g3355"
             transform="matrix(10.36793,0,0,10.36793,-15027.386,-919.77167)"
             style="fill:#ffffff;fill-opacity:0.69999999">
            <defs
               id="defs3348">
              <path
                 id="path3406"
                 d="M 720.6,0 H 975 V 572.4 H 720.6 Z" />
            </defs>
            <clipPath
               id="SVGID_4_">
              <use
                 xlink:href="#SVGID_3_"
                 overflow="visible"
                 id="use3350"
                 x="0"
                 y="0"
                 width="100%"
                 height="100%" />
            </clipPath>
            <path
               class="st4"
               d="M 720.6,422.1 975,572.4 V 0 Z"
               clip-path="url(#SVGID_4_)"
               id="path3353"
               style="fill:#ffffff;fill-opacity:0.69999999" />
          </g>
          <g
             class="st5"
             id="g3365"
             transform="matrix(10.36793,0,0,10.36793,-15027.386,-919.77167)"
             style="fill:#ffffff;fill-opacity:0.69999999">
            <defs
               id="defs3358">
              <path
                 id="path3413"
                 d="m 975,0 h 254.4 V 572.4 H 975 Z" />
            </defs>
            <clipPath
               id="SVGID_6_">
              <use
                 xlink:href="#SVGID_5_"
                 overflow="visible"
                 id="use3360"
                 x="0"
                 y="0"
                 width="100%"
                 height="100%" />
            </clipPath>
            <path
               class="st6"
               d="M 975,0 V 572.4 L 1229.3,422.1 Z"
               clip-path="url(#SVGID_6_)"
               id="path3363"
               style="fill:#ffffff;fill-opacity:0.69999999" />
          </g>
          <g
             class="st3"
             id="g3375"
             transform="matrix(10.36793,0,0,10.36793,-15027.386,-919.77167)"
             style="fill:#ffffff;fill-opacity:0.69999999">
            <defs
               id="defs3368">
              <path
                 id="path3420"
                 d="M 720.6,470.3 H 975 V 828.7 H 720.6 Z" />
            </defs>
            <clipPath
               id="SVGID_8_">
              <use
                 xlink:href="#SVGID_7_"
                 overflow="visible"
                 id="use3370"
                 x="0"
                 y="0"
                 width="100%"
                 height="100%" />
            </clipPath>
            <path
               class="st7"
               d="M 720.6,470.3 975,828.7 V 620.6 Z"
               clip-path="url(#SVGID_8_)"
               id="path3373"
               style="fill:#ffffff;fill-opacity:0.69999999" />
          </g>
          <g
             class="st5"
             id="g3385"
             transform="matrix(10.36793,0,0,10.36793,-15027.386,-919.77167)"
             style="fill:#ffffff;fill-opacity:0.69999999">
            <defs
               id="defs3378">
              <path
                 id="path3427"
                 d="m 975,470.3 h 254.5 V 828.7 H 975 Z" />
            </defs>
            <clipPath
               id="SVGID_10_">
              <use
                 xlink:href="#SVGID_9_"
                 overflow="visible"
                 id="use3380"
                 x="0"
                 y="0"
                 width="100%"
                 height="100%" />
            </clipPath>
            <path
               class="st8"
               d="M 975,620.6 V 828.7 L 1229.5,470.3 Z"
               clip-path="url(#SVGID_10_)"
               id="path3383"
               style="fill:#ffffff;fill-opacity:0.69999999" />
          </g>
        </g>
      </g>
    </g>
  </g>
  <style
     id="style3333">.st0{fill:#3c3c3b}.st1{opacity:.6}.st2{clip-path:url(#SVGID_2_);fill:#010101}.st3{opacity:.45}.st4{clip-path:url(#SVGID_4_);fill:#010101}.st5{opacity:.8}.st6,.st7,.st8{clip-path:url(#SVGID_6_);fill:#010101}.st7,.st8{clip-path:url(#SVGID_8_)}.st8{clip-path:url(#SVGID_10_)}</style>
</svg>
