<?xml version="1.0" encoding="UTF-8" standalone="no"?>
<svg
   viewBox="0 0 50 49.999999"
   width="50"
   height="50"
   version="1.1"
   id="svg8"
   sodipodi:docname="i-xs-light.svg"
   inkscape:version="1.1 (c68e22c387, 2021-05-23)"
   xmlns:inkscape="http://www.inkscape.org/namespaces/inkscape"
   xmlns:sodipodi="http://sodipodi.sourceforge.net/DTD/sodipodi-0.dtd"
   xmlns="http://www.w3.org/2000/svg"
   xmlns:svg="http://www.w3.org/2000/svg"
   xmlns:rdf="http://www.w3.org/1999/02/22-rdf-syntax-ns#"
   xmlns:cc="http://creativecommons.org/ns#"
   xmlns:dc="http://purl.org/dc/elements/1.1/">
  <defs
     id="defs12" />
  <sodipodi:namedview
     id="namedview10"
     pagecolor="#ffffff"
     bordercolor="#666666"
     borderopacity="1.0"
     inkscape:pageshadow="2"
     inkscape:pageopacity="0.0"
     inkscape:pagecheckerboard="0"
     showgrid="false"
     inkscape:showpageshadow="false"
     inkscape:zoom="7.457907"
     inkscape:cx="50.617418"
     inkscape:cy="32.381739"
     inkscape:window-width="1920"
     inkscape:window-height="1009"
     inkscape:window-x="-8"
     inkscape:window-y="-8"
     inkscape:window-maximized="1"
     inkscape:current-layer="svg8" />
  <title
     id="title2">kcs</title>
  <g
     id="g833"
     transform="matrix(0.0191997,0,0,0.0191997,3.048,1.0000127)"
     style="fill:#ffffff;fill-opacity:0.69999999">
    <path
       d="m 1924.48,1522.23 -468.47,466.28 -747.84,-739.81 746.41,-738.61 469.9,467.7 c 83.34,82.63 217.92,82.63 300.54,-0.72 82.62,-83.35 82.26,-217.92 -0.72,-300.54 L 1606.62,61.74 c -83.34,-82.62 -217.92,-82.26 -300.54,0.72 -0.34,0.34 -15.07,12.57 -21.65,19.12 L 425.02,931.75 V 423.61 c 0,-117.25 -95.25,-212.5 -212.51,-212.5 C 95.25,211.11 0.36,306.36 0,423.61 v 1651.4 c 0,117.26 95.25,212.51 212.51,212.51 117.26,0 212.51,-95.29 212.51,-212.51 v -509.26 l 859.41,850.17 c 3.71,3.69 18.08,18.05 21.65,21.65 82.62,83 217.2,83.34 300.54,0.72 l 617.68,-614.8 c 83,-82.62 83.34,-217.19 0.72,-300.54 -82.98,-82.94 -217.56,-83.34 -300.54,-0.72 z"
       fill="#0097e8"
       id="path4"
       style="fill:#ffffff;fill-opacity:0.69999999" />
    <circle
       cx="1457.97"
       cy="1250.2"
       r="214.31"
       fill="#0097e8"
       id="circle6"
       style="fill:#ffffff;fill-opacity:0.69999999" />
  </g>
  <metadata
     id="metadata829">
    <rdf:RDF>
      <cc:Work
         rdf:about="">
        <dc:title>kcs</dc:title>
      </cc:Work>
    </rdf:RDF>
  </metadata>
</svg>
