<?xml version="1.0" encoding="UTF-8" standalone="no"?>
<!-- Generator: Adobe Illustrator 19.2.1, SVG Export Plug-In . SVG Version: 6.00 Build 0)  -->

<svg
   version="1.1"
   id="layer"
   x="0px"
   y="0px"
   viewBox="0 0 50 50"
   xml:space="preserve"
   sodipodi:docname="k-xs-light.svg"
   width="50"
   height="50"
   inkscape:version="1.1 (c68e22c387, 2021-05-23)"
   xmlns:inkscape="http://www.inkscape.org/namespaces/inkscape"
   xmlns:sodipodi="http://sodipodi.sourceforge.net/DTD/sodipodi-0.dtd"
   xmlns="http://www.w3.org/2000/svg"
   xmlns:svg="http://www.w3.org/2000/svg"><defs
   id="defs11" /><sodipodi:namedview
   id="namedview9"
   pagecolor="#ffffff"
   bordercolor="#666666"
   borderopacity="1.0"
   inkscape:pageshadow="2"
   inkscape:pageopacity="0.0"
   inkscape:pagecheckerboard="0"
   showgrid="false"
   inkscape:showpageshadow="false"
   inkscape:zoom="3.5745766"
   inkscape:cx="134.98102"
   inkscape:cy="73.994777"
   inkscape:window-width="1920"
   inkscape:window-height="1009"
   inkscape:window-x="-8"
   inkscape:window-y="-8"
   inkscape:window-maximized="1"
   inkscape:current-layer="layer" />
<style
   type="text/css"
   id="style2">
	.st0{fill:#262C33;}
	.st1{fill:#00CCCC;}
</style>

<g
   id="g1569"
   style="fill:#ffffff;fill-opacity:0.7"
   transform="matrix(0.99770101,0,0,1,0.00229899,0)"><path
     style="fill:#ffffff;fill-opacity:0.7;stroke-width:0.279388"
     d="M 44.780092,17.261302"
     id="path1255" /><path
     style="fill:#ffffff;fill-opacity:0.7;stroke-width:0.279388"
     d="m 44.780092,17.261302 h 4.330514 v -5.72745 H 39.024701 Z"
     id="path1253" /><path
     style="fill:#ffffff;fill-opacity:0.7;stroke-width:0.279388"
     d="M 8.040576,7.9856224"
     id="path1251" /><path
     style="fill:#ffffff;fill-opacity:0.7;stroke-width:0.279388"
     d="M 8.040576,7.9856224 C 3.486553,12.511712 1,18.546492 1,24.972412 c 0,6.42592 2.486553,12.4607 7.040576,16.98679 4.498146,4.52608 10.616743,7.06851 17.014727,7.04057 h 24.055303 v -5.72745 H 25.055303 c -4.861351,0 -9.527129,-1.89984 -12.963601,-5.33631 -3.436472,-3.43647 -5.364249,-8.07431 -5.364249,-12.93566 0,-4.88929 1.899838,-9.47125 5.364249,-12.93566 3.436472,-3.4364796 8.10225,-5.3642496 12.935662,-5.3363096 h 24.055303 v -5.72746 H 25.055303 c -6.425923,-0.0559 -12.460703,2.43068 -17.014727,6.9847 z"
     id="path1249" /><path
     style="fill:#ffffff;fill-opacity:0.7;stroke-width:0.279388"
     d="M 49.110606,38.410972"
     id="path1247" /><path
     style="fill:#ffffff;fill-opacity:0.7;stroke-width:0.279388"
     d="m 49.110606,38.410972 v -5.72745 h -4.330514 l -5.755391,5.72745 z"
     id="path1245" /><path
     style="fill:#ffffff;fill-opacity:0.7;stroke-width:0.279388"
     d="m 25.055303,11.533852 c -7.43172,0 -13.4665,6.03478 -13.4665,13.43856 0,7.43172 6.03478,13.43856 13.4665,13.43856 H 32.5429 l 5.755392,-5.72745 H 25.055303 c -4.246697,0 -7.711108,-3.46441 -7.711108,-7.71111 0,-4.2467 3.464411,-7.71111 7.711108,-7.71111 H 38.298292 L 32.5429,11.533852 Z"
     id="path1243" /><path
     style="fill:#ffffff;fill-opacity:0.7;stroke-width:0.279388"
     d="M 25.055303,27.822172"
     id="path1241" /><path
     style="fill:#ffffff;fill-opacity:0.7;stroke-width:0.279388"
     d="m 25.055303,27.822172 h 18.0764 l 2.877696,-2.8777 -2.877696,-2.8777 h -18.0764 c -3.827615,0.0279 -3.827615,5.7554 0,5.7554 z"
     id="path6" /></g>
</svg>
