<?xml version="1.0" encoding="UTF-8" standalone="no"?>
<!-- Created with Inkscape (http://www.inkscape.org/) -->

<svg
   width="154"
   height="154"
   viewBox="0 0 40.745832 40.745834"
   version="1.1"
   id="svg5"
   inkscape:version="1.1 (c68e22c387, 2021-05-23)"
   sodipodi:docname="PLP - Pay Later Project.svg"
   xmlns:inkscape="http://www.inkscape.org/namespaces/inkscape"
   xmlns:sodipodi="http://sodipodi.sourceforge.net/DTD/sodipodi-0.dtd"
   xmlns="http://www.w3.org/2000/svg"
   xmlns:svg="http://www.w3.org/2000/svg">
  <sodipodi:namedview
     id="namedview7"
     pagecolor="#ffffff"
     bordercolor="#666666"
     borderopacity="1.0"
     inkscape:pageshadow="2"
     inkscape:pageopacity="0.0"
     inkscape:pagecheckerboard="0"
     inkscape:document-units="mm"
     showgrid="false"
     inkscape:showpageshadow="false"
     units="px"
     height="154px"
     inkscape:zoom="1.4142136"
     inkscape:cx="-85.206365"
     inkscape:cy="218.84954"
     inkscape:window-width="1920"
     inkscape:window-height="1009"
     inkscape:window-x="-8"
     inkscape:window-y="-8"
     inkscape:window-maximized="1"
     inkscape:current-layer="layer1" />
  <defs
     id="defs2">
    <linearGradient
       id="linearGradient3852"
       inkscape:swatch="solid">
      <stop
         style="stop-color:#0000e1;stop-opacity:1;"
         offset="0"
         id="stop3850" />
    </linearGradient>
  </defs>
  <g
     inkscape:label="Layer 1"
     inkscape:groupmode="layer"
     id="layer1">
    <path
       id="path1204"
       style="fill:#0000d7;fill-opacity:1;stroke-width:0.300468"
       d="m 20.812398,1.8531083 c -0.512126,-0.00496 -1.034325,0.00811 -1.566709,0.03859 -3.098959,0.1776113 -5.682821,0.9407755 -8.281273,2.445324 -2.3213953,1.344106 -5.8167293,5.083514 -6.9894793,7.4782157 -1.8557641,3.789318 -1.9175865,4.238232 -2.0594673,14.836664 -0.078492,5.86381 -0.019527,9.689637 0.1495197,9.689637 0.1536313,0 1.2196181,-0.789799 2.3689466,-1.754806 l 2.089204,-1.754015 1.336813,1.161577 c 2.8765353,2.500173 6.4301033,4.208065 9.8785173,4.747543 0.920947,0.144026 2.621309,0.194783 3.778104,0.112431 5.042744,-0.358213 8.27535,-1.850592 11.8801,-5.484671 4.002227,-4.034764 5.449536,-7.463815 5.467807,-12.952463 0.01786,-5.36735 -1.665845,-9.432043 -5.477445,-13.2209287 C 29.791234,3.6219183 25.762859,1.9019069 20.812398,1.8530978 Z m -0.258839,9.2683977 c 3.375161,0.04609 6.722689,1.899804 8.379352,5.539337 0.931755,2.047123 0.953178,5.420606 0.04737,7.398644 -0.889847,1.943358 -2.588406,3.718036 -4.410711,4.608482 -4.705236,2.299125 -10.002044,0.435953 -12.587505,-4.428428 -0.983539,-1.850522 -0.971485,-5.788404 0.02413,-7.810201 1.769162,-3.59272 5.172197,-5.353976 8.547349,-5.307834 z"
       inkscape:export-filename="C:\Users\veli0\Music\PLP\logo white.png"
       inkscape:export-xdpi="623.37665"
       inkscape:export-ydpi="623.37665" />
  </g>
</svg>
