<?xml version="1.0" encoding="utf-8"?>
<svg viewBox="0 0 500 500" xmlns="http://www.w3.org/2000/svg">
  <g id="layer1" transform="matrix(5.249361, 0, 0, 5.249361, 226.214447, 25.492928)">
    <path id="path-1" style="fill:#ffffff;fill-opacity:1;stroke-width:0.0772631" d="m 5.4048714,0.52940667 c -0.1316897,-0.0012 -0.2659697,0.0021 -0.4028685,0.0099 -0.7968763,0.04568 -1.4612988,0.241914 -2.1294731,0.62879903 -0.5969309,0.345627 -1.4957323,1.307191 -1.797297,1.922972 -0.47719704,0.974397 -0.49309424,1.089832 -0.52957794,3.815147 -0.020184,1.507839 -0.00502,2.491624 0.038448,2.491624 0.039505,0 0.3136165,-0.203091 0.60915844,-0.451236 l 0.5372246,-0.451033 0.3437523,0.298692 c 0.7396815,0.642902 1.6534574,1.082075 2.5401935,1.2207983 0.2368153,0.03704 0.6740518,0.05009 0.9715138,0.02891 C 6.8826527,9.9518697 7.7138958,9.5681127 8.6408326,8.6336337 9.6699778,7.5961217 10.042144,6.7143647 10.046842,5.3029957 10.051442,3.9228187 9.6184818,2.8776107 8.6383544,1.9033247 7.7137186,0.98422067 6.677849,0.54193167 5.4048714,0.52937967 Z M 5.3383124,2.9127117 c 0.8678996,0.01186 1.7286938,0.488522 2.1546935,1.424403 0.2395943,0.526404 0.2451036,1.393872 0.012183,1.902511 -0.2288179,0.499721 -0.6655911,0.956068 -1.1341843,1.18504 -1.2099214,0.591204 -2.5719595,0.112102 -3.2367933,-1.138741 -0.2529103,-0.475848 -0.2498107,-1.488448 0.0062,-2.008339 0.454928,-0.923844 1.3299952,-1.376739 2.1978926,-1.364874 z"/>
  </g>
  <text style="fill: rgb(255, 255, 255); font-family: Arial, sans-serif; font-size: 15.9px; font-weight: 700; white-space: pre;" x="172.707" y="108.721">PAY LATER PROJECT</text>
  <circle style="stroke: rgb(0, 247, 255); fill: none;" cx="80.974" cy="149.491" r="45.3"/>
  <circle style="stroke: rgb(0, 247, 255); fill: none;" cx="82.106" cy="345.98" r="45.3"/>
  <circle style="stroke: rgb(0, 247, 255); fill: none;" cx="251.982" cy="442.242" r="45.3"/>
  <circle style="stroke: rgb(0, 247, 255); fill: none;" cx="424.689" cy="342.582" r="45.3"/>
  <circle style="stroke: rgb(0, 247, 255); fill: none;" cx="421.857" cy="146.659" r="45.3"/>
  <text style="fill: rgb(255, 255, 255); font-family: Arial, sans-serif; font-size: 15.9px; font-weight: 700; white-space: pre;" transform="matrix(1, 0, 0, 1, 40.20385, -68.516426)"><tspan x="2.44508" y="214.307"> SYSTEM</tspan><tspan x="2.44508" dy="1em">​</tspan><tspan>NEUTRAL</tspan></text>
  <text style="fill: rgb(255, 255, 255); font-family: Arial, sans-serif; font-size: 15.9px; font-weight: 700; white-space: pre;" transform="matrix(0.873687, 0, 0, 0.898442, 40.301659, 149.428955)"><tspan x="2.44508" y="214.307">    SMART</tspan><tspan x="2.44508" dy="1em">​</tspan><tspan>CONTRACT</tspan></text>
  <text style="white-space: pre; fill: rgb(51, 51, 51); font-family: Arial, sans-serif; font-size: 15.9px;" x="10.759" y="341.45"> </text>
  <text style="fill: rgb(255, 255, 255); font-family: Arial, sans-serif; font-size: 15.9px; font-weight: 700; white-space: pre;" transform="matrix(0.873687, 0, 0, 0.898442, 213.488571, 246.591751)"><tspan x="2.44508" y="214.307"> CUSTOM</tspan><tspan x="2.44508" dy="1em">​</tspan><tspan>TAILORED</tspan></text>
  <text style="fill: rgb(255, 255, 255); font-family: Arial, sans-serif; font-size: 15.9px; font-weight: 700; white-space: pre;" transform="matrix(0.873687, 0, 0, 0.898442, 393.226013, 146.931503)"><tspan x="2.44508" y="214.307">  MOST</tspan><tspan x="2.44508" dy="1em">​</tspan><tspan>SECURE</tspan></text>
  <text style="fill: rgb(255, 255, 255); font-family: Arial, sans-serif; font-size: 15.9px; font-weight: 700; white-space: pre;" transform="matrix(0.873687, 0, 0, 0.898442, 380.584869, -47.292728)"><tspan x="2.44508" y="214.307">  GLOBAL</tspan><tspan x="2.44508" dy="1em">​</tspan><tspan>PLATFORM</tspan></text>
  <text style="fill: rgb(255, 255, 255); font-family: Arial, sans-serif; font-size: 8px; font-weight: 700; white-space: pre;" x="182.035" y="124.292">BUY NOW PAY LATER WITH CRYPTO</text>
</svg>